<?xml version="1.0" encoding="UTF-8"?>
<svg width="128" height="128" version="1.0" xmlns="http://www.w3.org/2000/svg" xmlns:xlink="http://www.w3.org/1999/xlink">
 <defs>
  <linearGradient id="a">
   <stop stop-color="#fff" offset="0"/>
   <stop stop-color="#fff" offset=".4"/>
   <stop stop-color="#f6f5f4" offset="1"/>
  </linearGradient>
  <radialGradient id="i" cx="134.2" cy="222.99" r="2" gradientTransform="matrix(4 0 0 4 -492.8 -641.95)" gradientUnits="userSpaceOnUse" xlink:href="#a"/>
  <radialGradient id="h" cx="134.2" cy="222.99" r="2" gradientTransform="matrix(4 0 0 4 -492.8 -681.95)" gradientUnits="userSpaceOnUse" xlink:href="#a"/>
  <radialGradient id="g" cx="134.2" cy="222.99" r="2" gradientTransform="matrix(6 0 0 6 -785.2 -1065.9)" gradientUnits="userSpaceOnUse" xlink:href="#a"/>
  <radialGradient id="f" cx="134.2" cy="222.99" r="2" gradientTransform="matrix(6 0 0 6 -785.2 -1153.9)" gradientUnits="userSpaceOnUse" xlink:href="#a"/>
  <radialGradient id="e" cx="134.2" cy="222.99" r="2" gradientTransform="matrix(4 0 0 4 -452.8 -681.95)" gradientUnits="userSpaceOnUse" xlink:href="#a"/>
  <radialGradient id="d" cx="134.2" cy="222.99" r="2" gradientTransform="matrix(4 0 0 4 -452.8 -641.95)" gradientUnits="userSpaceOnUse" xlink:href="#a"/>
  <radialGradient id="c" cx="134.2" cy="222.99" r="2" gradientTransform="matrix(6 0 0 6 -697.2 -1065.9)" gradientUnits="userSpaceOnUse" xlink:href="#a"/>
  <radialGradient id="b" cx="134.2" cy="222.99" r="2" gradientTransform="matrix(6 0 0 6 -697.2 -1153.9)" gradientUnits="userSpaceOnUse" xlink:href="#a"/>
 </defs>
 <g transform="translate(0 -172)">
  <path d="m22.352 194.35h82.687v82.687h-82.687z" fill="none" font-family="sans-serif" font-weight="400" overflow="visible" style="font-feature-settings:normal;font-variant-alternates:normal;font-variant-caps:normal;font-variant-ligatures:normal;font-variant-numeric:normal;font-variant-position:normal;isolation:auto;mix-blend-mode:normal;shape-padding:0;text-decoration-color:#000;text-decoration-line:none;text-decoration-style:solid;text-indent:0;text-orientation:mixed;text-transform:none;white-space:normal"/>
  <g fill="none" stroke="#f6f5f4" stroke-width="8">
   <path d="m84 256 24 24m-24-64 24-24m-64 64-24 24m24-64-24-24m24 24h40v40h-40z" overflow="visible"/>
   <path d="M20 192h88v88H20z" overflow="visible"/>
  </g>
  <path d="m98.5 194v2h-69v-2z" fill="#d5d3cf"/>
  <path d="M120 192c0 6.627-5.373 12-12 12-1.85 0-3.222-.095-5.165-1.166-1.092-1.726-3.55-4.584-5.668-5.666C96.096 195.224 96 193.85 96 192c0-6.627 5.373-12 12-12s12 5.373 12 12z" fill="#d5d3cf" overflow="visible"/>
  <path d="m110 203h2v69h-2z" fill="#d5d3cf"/>
  <circle cx="108" cy="280" r="12" fill="#d5d3cf" overflow="visible"/>
  <path d="m79 258v2h-30v-2zm20.604 16.425-1.414 1.415-15-15 1.415-1.415zm3.454-74.632 1.414 1.414-15 15-1.414-1.414z" fill="#d5d3cf"/>
  <circle cx="108" cy="190" r="12" fill="url(#b)" overflow="visible"/>
  <path d="m86 222h2v26h-2zm-7-4v2h-30v-2z" fill="#d5d3cf"/>
  <circle cx="84" cy="216" r="8" fill="#d5d3cf" overflow="visible"/>
  <path d="m98.5 282v2h-69v-2z" fill="#d5d3cf"/>
  <circle cx="108" cy="278" r="12" fill="url(#c)" overflow="visible"/>
  <path d="M92 256c0 .666 0 1-.235 1.932-1.165.59-4.765 4.542-5.787 5.822-.502.246-1.295.246-1.978.246a8 8 0 1 1 8-8z" fill="#d5d3cf" overflow="visible"/>
  <circle cx="84" cy="254" r="8" fill="url(#d)" overflow="visible"/>
  <circle cx="84" cy="214" r="8" fill="url(#e)" overflow="visible"/>
  <path d="m22 203h2v69h-2z" fill="#d5d3cf"/>
  <circle cx="20" cy="280" r="12" fill="#d5d3cf" overflow="visible"/>
  <path d="m46 222h2v26h-2z" fill="#d5d3cf"/>
  <circle cx="44" cy="216" r="8" fill="#d5d3cf" overflow="visible"/>
  <path d="M43.586 259.586L45 261l-15 15-1.414-1.414z" fill="#d5d3cf"/>
  <path d="M7.912 192c0 6.627 5.372 12 12 12 1.849 0 3.222-.095 5.165-1.166 1.092-1.726 3.55-4.584 5.668-5.666 1.071-1.944 1.167-3.318 1.167-5.168 0-6.627-5.373-12-12-12-6.628 0-12 5.373-12 12z" fill="#d5d3cf" overflow="visible"/>
  <path d="m40.077 214.95-1.414 1.415-15-15 1.415-1.414z" fill="#d5d3cf"/>
  <circle cx="20" cy="190" r="12" fill="url(#f)" overflow="visible"/>
  <circle cx="20" cy="278" r="12" fill="url(#g)" overflow="visible"/>
  <circle cx="44" cy="214" r="8" fill="url(#h)" overflow="visible"/>
  <path d="M36 256c0 .666 0 1 .235 1.932 1.165.59 4.765 4.542 5.787 5.822.502.246 1.295.246 1.978.246a8 8 0 1 0-8-8z" fill="#d5d3cf" overflow="visible"/>
  <circle cx="44" cy="254" r="8" fill="url(#i)" overflow="visible"/>
 </g>
</svg>
