<svg version="1.1" id="Layer_1" xmlns="http://www.w3.org/2000/svg" xmlns:xlink="http://www.w3.org/1999/xlink" x="0px" y="0px"
	 width="100%" viewBox="0 0 225 225" enable-background="new 0 0 225 225" xml:space="preserve">
<path fill="#FEFEFE" opacity="1.000000" stroke="none" 
	d="
M1.000000,84.000000 
	C1.000000,56.000004 1.000000,28.500010 1.000000,1.000011 
	C75.999977,1.000007 150.999954,1.000007 225.999954,1.000004 
	C225.999969,75.999969 225.999969,150.999939 225.999985,225.999939 
	C151.000046,225.999954 76.000092,225.999954 1.000068,225.999969 
	C1.000000,178.833328 1.000000,131.666672 1.000000,84.000000 
M97.161110,20.650000 
	C78.658310,30.597374 65.272705,45.303963 58.474205,65.120514 
	C50.050785,89.673416 52.541088,113.548592 66.409966,136.693085 
	C64.995720,137.774094 63.537811,138.652786 62.366665,139.819366 
	C47.137920,154.988602 31.924080,170.173035 16.762632,185.409515 
	C9.394429,192.814178 9.683076,204.138229 17.292540,211.278900 
	C24.363649,217.914383 35.134468,217.546921 42.423088,210.288574 
	C57.771084,195.004288 73.069321,179.669998 88.363045,164.331360 
	C90.054291,162.635147 91.305359,161.102310 94.212013,162.803772 
	C113.879463,174.316467 134.954269,176.627701 156.696060,170.681580 
	C202.271469,158.217255 227.883972,109.631599 210.688858,64.045380 
	C193.302124,17.951132 142.096069,-1.336360 97.161110,20.650000 
z"/>
<path fill="#9B3E08" opacity="1.000000" stroke="none" 
	d="
M97.488853,20.475101 
	C142.096069,-1.336360 193.302124,17.951132 210.688858,64.045380 
	C227.883972,109.631599 202.271469,158.217255 156.696060,170.681580 
	C134.954269,176.627701 113.879463,174.316467 94.212013,162.803772 
	C91.305359,161.102310 90.054291,162.635147 88.363045,164.331360 
	C73.069321,179.669998 57.771084,195.004288 42.423088,210.288574 
	C35.134468,217.546921 24.363649,217.914383 17.292540,211.278900 
	C9.683076,204.138229 9.394429,192.814178 16.762632,185.409515 
	C31.924080,170.173035 47.137920,154.988602 62.366665,139.819366 
	C63.537811,138.652786 64.995720,137.774094 66.409966,136.693085 
	C52.541088,113.548592 50.050785,89.673416 58.474205,65.120514 
	C65.272705,45.303963 78.658310,30.597374 97.488853,20.475101 
M137.242050,15.061970 
	C131.301926,15.610416 125.263962,15.659627 119.440041,16.801027 
	C102.053452,20.208549 87.698318,28.926683 76.035622,42.316509 
	C54.624546,66.898354 51.172398,103.280914 68.046883,131.492447 
	C70.178398,135.056000 70.379814,137.314606 67.159798,140.466476 
	C51.203671,156.084976 35.519478,171.981110 19.720478,187.760422 
	C16.058100,191.418228 14.167408,195.703369 15.436749,200.851318 
	C18.341887,212.633362 31.219574,216.139526 39.948242,207.480743 
	C55.918667,191.638229 71.785049,175.690765 87.681053,159.773331 
	C89.470436,157.981537 90.791756,156.255753 93.927765,158.222076 
	C110.191689,168.419846 127.881248,172.017334 146.916321,169.081894 
	C163.790619,166.479660 178.432999,159.104614 190.083328,146.934250 
	C207.783508,128.443985 215.149307,106.127159 211.086853,80.581215 
	C206.591232,52.311344 190.507050,32.606781 164.652679,21.320934 
	C156.478912,17.752945 147.020920,17.126921 137.242050,15.061970 
z"/>
<path fill="#FE7F00" opacity="1.000000" stroke="none" 
	d="
M137.696350,15.108242 
	C147.020920,17.126921 156.478912,17.752945 164.652679,21.320934 
	C190.507050,32.606781 206.591232,52.311344 211.086853,80.581215 
	C215.149307,106.127159 207.783508,128.443985 190.083328,146.934250 
	C178.432999,159.104614 163.790619,166.479660 146.916321,169.081894 
	C127.881248,172.017334 110.191689,168.419846 93.927765,158.222076 
	C90.791756,156.255753 89.470436,157.981537 87.681053,159.773331 
	C71.785049,175.690765 55.918667,191.638229 39.948242,207.480743 
	C31.219574,216.139526 18.341887,212.633362 15.436749,200.851318 
	C14.167408,195.703369 16.058100,191.418228 19.720478,187.760422 
	C35.519478,171.981110 51.203671,156.084976 67.159798,140.466476 
	C70.379814,137.314606 70.178398,135.056000 68.046883,131.492447 
	C51.172398,103.280914 54.624546,66.898354 76.035622,42.316509 
	C87.698318,28.926683 102.053452,20.208549 119.440041,16.801027 
	C125.263962,15.659627 131.301926,15.610416 137.696350,15.108242 
M182.246414,106.533936 
	C186.596878,91.127510 184.384506,76.412575 174.839905,63.875847 
	C163.123550,48.486549 147.401245,40.744503 127.360054,43.861336 
	C112.418602,46.185055 100.901634,53.986412 93.091316,66.405037 
	C82.334221,83.509125 82.625298,101.216766 92.913506,118.743721 
	C102.370605,134.854782 124.284714,144.798279 142.567490,141.363220 
	C162.388672,137.639099 175.038925,125.795227 182.246414,106.533936 
z"/>
<path fill="#9C400B" opacity="1.000000" stroke="none" 
	d="
M182.145462,106.922661 
	C175.038925,125.795227 162.388672,137.639099 142.567490,141.363220 
	C124.284714,144.798279 102.370605,134.854782 92.913506,118.743721 
	C82.625298,101.216766 82.334221,83.509125 93.091316,66.405037 
	C100.901634,53.986412 112.418602,46.185055 127.360054,43.861336 
	C147.401245,40.744503 163.123550,48.486549 174.839905,63.875847 
	C184.384506,76.412575 186.596878,91.127510 182.145462,106.922661 
M123.087311,136.766541 
	C155.836075,145.959167 185.746109,115.171188 179.929321,84.574692 
	C173.795868,52.312527 134.980850,35.809311 109.043190,55.121033 
	C94.077858,66.263390 86.421387,81.207001 89.875656,100.192612 
	C93.239029,118.678596 104.727295,130.461700 123.087311,136.766541 
z"/>
<path fill="#FEFDFD" opacity="1.000000" stroke="none" 
	d="
M122.682892,136.675079 
	C104.727295,130.461700 93.239029,118.678596 89.875656,100.192612 
	C86.421387,81.207001 94.077858,66.263390 109.043190,55.121033 
	C134.980850,35.809311 173.795868,52.312527 179.929321,84.574692 
	C185.746109,115.171188 155.836075,145.959167 122.682892,136.675079 
z"/>
</svg>